<svg width="180" height="180" viewBox="0 0 180 180" fill="none" xmlns="http://www.w3.org/2000/svg">
<rect width="180" height="180" rx="90" fill="#FD8369" fill-opacity="0.05"/>
<path d="M75.7143 98.2858H71.5198L64.6859 88.3456C64.6743 88.3287 64.6611 88.3137 64.6489 88.2972C64.6277 88.2686 64.6069 88.2398 64.5841 88.2126C64.5632 88.1874 64.5404 88.1639 64.5183 88.1401C64.5015 88.122 64.4853 88.1035 64.4676 88.086C64.4413 88.0601 64.4138 88.036 64.3861 88.0119C64.3705 87.9983 64.3551 87.984 64.339 87.9709C64.3107 87.9479 64.281 87.9267 64.2515 87.9055C64.2339 87.8927 64.2165 87.8798 64.1984 87.8677C64.1703 87.8492 64.1415 87.8325 64.1127 87.8157C64.0908 87.803 64.0692 87.7898 64.0469 87.778C64.021 87.7644 63.9946 87.7523 63.9681 87.7401C63.9411 87.7276 63.9143 87.7148 63.8866 87.7035C63.8629 87.6939 63.8388 87.6858 63.8149 87.6773C63.7839 87.6662 63.7531 87.655 63.7214 87.6456C63.698 87.6387 63.6743 87.6334 63.6507 87.6276C63.6183 87.6195 63.5861 87.611 63.5531 87.6048C63.5257 87.5994 63.4978 87.5961 63.4701 87.5921C63.4408 87.5878 63.412 87.5829 63.3823 87.5802C63.344 87.5767 63.3053 87.5756 63.2667 87.5744C63.2493 87.5738 63.2321 87.5715 63.2143 87.5715H63.1998C63.1989 87.5715 63.1978 87.5715 63.1969 87.5715H59.4196C59.3964 87.5715 59.3736 87.5742 59.3504 87.5751C59.3176 87.5764 59.2848 87.5769 59.2518 87.58C59.2145 87.5836 59.1783 87.5896 59.1417 87.5952C59.1223 87.5983 59.1031 87.5997 59.0835 87.6032C59.0806 87.6039 59.0777 87.6048 59.0748 87.6055C59.0324 87.6137 58.9913 87.6247 58.95 87.636C58.9335 87.6405 58.9165 87.6439 58.9002 87.6488C58.8625 87.6601 58.8259 87.6742 58.7893 87.6881C58.7701 87.6952 58.7502 87.7014 58.7312 87.7093C58.704 87.7206 58.6779 87.7343 58.6513 87.747C58.6245 87.7597 58.5971 87.7715 58.571 87.7856C58.5567 87.7934 58.5433 87.8026 58.5292 87.8106C58.4926 87.8316 58.456 87.8528 58.4214 87.8762C58.4192 87.8776 58.4174 87.8793 58.4152 87.8809C58.3221 87.9443 58.2355 88.0157 58.1569 88.0945C58.1553 88.0961 58.1542 88.0976 58.1527 88.0992C58.1143 88.1381 58.0774 88.1782 58.0428 88.2202C58.0214 88.2461 58.0022 88.2738 57.9821 88.301C57.9685 88.3193 57.954 88.3369 57.9411 88.3559C57.9132 88.3972 57.8875 88.4401 57.8629 88.4836C57.8596 88.4896 57.8553 88.4954 57.852 88.5014C57.8299 88.5418 57.8105 88.5836 57.7915 88.6258C57.7868 88.6363 57.7812 88.6461 57.7765 88.6566C57.7625 88.6892 57.7513 88.7231 57.7393 88.7566C57.7317 88.778 57.7228 88.799 57.7158 88.8206C57.7082 88.8445 57.7031 88.8691 57.6964 88.8934C57.6875 88.9262 57.6779 88.959 57.671 88.9925C57.6674 89.009 57.6656 89.0262 57.6627 89.043C57.6551 89.0849 57.6478 89.1271 57.6433 89.17C57.6419 89.1836 57.6417 89.1976 57.6406 89.2115C57.6368 89.2572 57.6337 89.3032 57.6337 89.3497C57.6337 89.3523 57.6332 89.3548 57.6332 89.3575C57.6332 89.3758 57.6355 89.3934 57.6359 89.4117C57.637 89.4501 57.6382 89.4883 57.6417 89.5267C57.6451 89.5622 57.6511 89.5968 57.6565 89.6318C57.6596 89.6523 57.6611 89.6729 57.6652 89.6934L57.6692 89.7139C57.6696 89.7157 57.6699 89.7175 57.6703 89.7193L59.3111 98.2858H55.0254L51.977 95.2374C51.9652 95.2256 51.952 95.2153 51.9399 95.2039C51.9096 95.1751 51.8792 95.1463 51.8469 95.1197C51.8236 95.1005 51.7991 95.0838 51.775 95.0662C51.7522 95.0492 51.7299 95.0316 51.7062 95.0157C51.6799 94.9981 51.6524 94.9827 51.6254 94.9666C51.6022 94.9528 51.5797 94.9383 51.556 94.9256C51.5297 94.9115 51.5024 94.8994 51.4757 94.8867C51.4495 94.8744 51.4239 94.8615 51.3973 94.8503C51.3721 94.8398 51.3464 94.8316 51.321 94.8224C51.2915 94.8117 51.2623 94.8003 51.2319 94.7912C51.2076 94.7838 51.1826 94.7785 51.158 94.7722C51.1263 94.7642 51.0948 94.7552 51.0625 94.7488C51.0355 94.7434 51.008 94.7403 50.9808 94.7363C50.9504 94.7318 50.9205 94.7262 50.8897 94.7231C50.8446 94.7186 50.7993 94.7173 50.7542 94.7162C50.7404 94.7162 50.7277 94.7144 50.7143 94.7144C50.7009 94.7144 50.6882 94.7162 50.6748 94.7164C50.6294 94.7173 50.5844 94.7189 50.5393 94.7233C50.5085 94.7262 50.4786 94.732 50.4482 94.7365C50.421 94.7405 50.3935 94.7436 50.3665 94.749C50.3341 94.7555 50.3027 94.7642 50.271 94.7724C50.2464 94.7787 50.2214 94.784 50.1971 94.7914C50.1667 94.8006 50.1375 94.8119 50.108 94.8226C50.0826 94.8318 50.0569 94.8403 50.0317 94.8506C50.0049 94.8617 49.9792 94.8747 49.9533 94.8869C49.9263 94.8997 49.8993 94.9115 49.873 94.9258C49.8493 94.9385 49.8265 94.953 49.8036 94.9668C49.7765 94.9829 49.7491 94.9983 49.7228 95.016C49.6991 95.0318 49.6768 95.0494 49.654 95.0664C49.6299 95.0843 49.6056 95.101 49.5821 95.12C49.5498 95.1465 49.5194 95.1753 49.489 95.2041C49.477 95.2157 49.4638 95.2258 49.452 95.2376C49.4395 95.2501 49.4288 95.2639 49.4165 95.2769C49.3886 95.3066 49.3605 95.336 49.3346 95.3675C49.3143 95.3923 49.2964 95.4182 49.2777 95.4439C49.2618 95.4653 49.2453 95.4858 49.2306 95.5079C49.2116 95.5363 49.1951 95.5655 49.1779 95.5945C49.1654 95.6155 49.1522 95.636 49.1406 95.6577C49.1252 95.6865 49.112 95.7162 49.0982 95.7456C49.0873 95.7691 49.0754 95.7923 49.0654 95.8164C49.0538 95.8447 49.0442 95.8735 49.0339 95.9021C49.0245 95.9285 49.0143 95.9543 49.0062 95.9814C48.9975 96.0101 48.9911 96.0394 48.9839 96.0684C48.977 96.0959 48.9694 96.1229 48.9638 96.1508C48.9571 96.1845 48.9531 96.2186 48.9482 96.2528C48.9448 96.2764 48.9404 96.2997 48.9379 96.3235C48.9321 96.3827 48.929 96.4421 48.929 96.5014V103.643C48.929 103.679 48.9323 103.715 48.9344 103.751C48.9024 104.245 49.0739 104.751 49.4518 105.129C49.8002 105.478 50.2571 105.652 50.7143 105.652C51.1714 105.652 51.6283 105.478 51.977 105.129L55.2486 101.857H59.3109L57.6705 110.424C57.6701 110.426 57.6698 110.428 57.6694 110.429L57.6654 110.45C57.6614 110.47 57.66 110.491 57.6567 110.511C57.6513 110.546 57.6453 110.581 57.6419 110.617C57.6382 110.655 57.6373 110.693 57.6361 110.732C57.6361 110.75 57.6339 110.768 57.6339 110.786C57.6339 110.788 57.6344 110.791 57.6344 110.794C57.6346 110.84 57.6377 110.886 57.6413 110.932C57.6424 110.946 57.6424 110.96 57.644 110.973C57.6484 111.016 57.6558 111.058 57.6634 111.1C57.6663 111.117 57.6681 111.134 57.6716 111.151C57.6786 111.184 57.6882 111.217 57.6971 111.25C57.7036 111.274 57.7089 111.299 57.7165 111.323C57.7234 111.344 57.7323 111.365 57.7399 111.387C57.752 111.42 57.7632 111.454 57.7772 111.487C57.7817 111.497 57.7875 111.507 57.7922 111.518C57.8111 111.56 57.8306 111.601 57.8527 111.642C57.856 111.648 57.86 111.654 57.8636 111.66C57.8882 111.703 57.9136 111.746 57.9417 111.787C57.9544 111.806 57.9692 111.824 57.9828 111.842C58.0029 111.87 58.0221 111.897 58.0435 111.923C58.0781 111.965 58.1149 112.005 58.1533 112.044C58.1547 112.046 58.156 112.047 58.1576 112.049C58.2361 112.128 58.3228 112.199 58.4158 112.262C58.4181 112.264 58.4198 112.266 58.4221 112.267C58.4569 112.291 58.4933 112.311 58.5299 112.333C58.544 112.341 58.5573 112.35 58.5716 112.358C58.5978 112.372 58.6252 112.384 58.652 112.396C58.6786 112.409 58.7047 112.423 58.7319 112.434C58.7509 112.442 58.7707 112.448 58.7899 112.455C58.8265 112.469 58.8632 112.483 58.9009 112.495C58.9172 112.499 58.9341 112.503 58.9507 112.507C58.9919 112.518 59.033 112.529 59.0754 112.538C59.0783 112.538 59.0812 112.539 59.0841 112.54C59.1111 112.545 59.1379 112.548 59.1647 112.552C59.1915 112.555 59.2181 112.561 59.2453 112.563C59.3044 112.569 59.3636 112.573 59.4221 112.573C59.4254 112.573 59.4286 112.572 59.4319 112.572H63.2103C63.2111 112.572 63.2123 112.572 63.2132 112.572C63.2185 112.572 63.2236 112.572 63.229 112.572C63.2913 112.571 63.3529 112.567 63.4136 112.561C63.4315 112.559 63.4489 112.555 63.4665 112.553C63.5158 112.546 63.5647 112.537 63.6127 112.526C63.6317 112.522 63.6504 112.517 63.6694 112.512C63.7158 112.499 63.7614 112.486 63.8062 112.47C63.8254 112.463 63.8444 112.456 63.8634 112.449C63.9082 112.432 63.9518 112.412 63.9946 112.391C64.012 112.383 64.0297 112.375 64.0469 112.366C64.104 112.336 64.1598 112.303 64.2132 112.267C64.2248 112.259 64.2353 112.25 64.2466 112.242C64.2886 112.212 64.3294 112.181 64.3687 112.148C64.3879 112.132 64.4062 112.114 64.425 112.097C64.4567 112.068 64.487 112.038 64.5165 112.006C64.533 111.988 64.5495 111.971 64.5656 111.952C64.602 111.91 64.6364 111.866 64.6687 111.82C64.6743 111.813 64.6808 111.806 64.6861 111.798L71.5198 101.857H75.7143C76.7004 101.857 77.5 101.058 77.5 100.072C77.5 99.0854 76.7004 98.2858 75.7143 98.2858ZM61.5797 91.143H62.2748L67.1855 98.2858H62.9475L61.5797 91.143ZM67.1855 101.857L62.2748 109H61.5797L62.9475 101.857H67.1855Z" fill="#FD8369"/>
<path d="M100.714 107.214H86.4286C85.4424 107.214 84.6429 108.014 84.6429 109C84.6429 109.986 85.4424 110.786 86.4286 110.786H100.714C101.7 110.786 102.5 109.986 102.5 109C102.5 108.014 101.7 107.214 100.714 107.214Z" fill="#FD8369"/>
<path d="M100.714 98.2856H86.4286C85.4424 98.2856 84.6429 99.0852 84.6429 100.071C84.6429 101.058 85.4424 101.857 86.4286 101.857H100.714C101.7 101.857 102.5 101.058 102.5 100.071C102.5 99.0852 101.7 98.2856 100.714 98.2856Z" fill="#FD8369"/>
<path d="M86.4286 92.9286H100.714C101.7 92.9286 102.5 92.1291 102.5 91.1429C102.5 90.1567 101.7 89.3572 100.714 89.3572H86.4286C85.4424 89.3572 84.6429 90.1567 84.6429 91.1429C84.6429 92.1291 85.4424 92.9286 86.4286 92.9286Z" fill="#FD8369"/>
<path d="M120.357 96.5C119.371 96.5 118.571 97.2996 118.571 98.2857V110.786C118.571 111.772 119.371 112.571 120.357 112.571C121.343 112.571 122.143 111.772 122.143 110.786V98.2857C122.143 97.2996 121.343 96.5 120.357 96.5Z" fill="#FD8369"/>
<path d="M120.357 87.5715C119.371 87.5715 118.571 88.3711 118.571 89.3572V91.143C118.571 92.1291 119.371 92.9287 120.357 92.9287C121.343 92.9287 122.143 92.1291 122.143 91.143V89.3572C122.143 88.3711 121.343 87.5715 120.357 87.5715Z" fill="#FD8369"/>
<path d="M131.071 59L56.0714 59C51.1482 59 47.1429 63.0054 47.1429 67.9286V78.8225C43.0725 79.6522 40 83.2596 40 87.5714L40 112.571C40 117.495 44.0054 121.5 48.9286 121.5H123.929C128.852 121.5 132.857 117.495 132.857 112.571V101.677C136.927 100.848 140 97.2404 140 92.9286V67.9286C140 63.0054 135.995 59 131.071 59ZM43.5714 112.571L43.5714 87.5714C43.5714 84.6176 45.9748 82.2143 48.9286 82.2143H77.721C77.7221 82.2143 77.7234 82.2145 77.7246 82.2145C77.7254 82.2145 77.7266 82.2143 77.7275 82.2143H109.643V117.929H48.9286C45.9748 117.929 43.5714 115.525 43.5714 112.571ZM68.7225 71.5H69.4176L74.3283 78.6429H70.0904L68.7225 71.5ZM129.286 112.571C129.286 115.525 126.882 117.929 123.929 117.929H113.214V82.2143H123.929C126.882 82.2143 129.286 84.6176 129.286 87.5714V112.571ZM136.429 92.9286C136.429 95.2565 134.935 97.2413 132.857 97.9786V87.5714C132.857 84.6567 131.453 82.0641 129.286 80.4335V78.6429C129.286 77.6567 128.486 76.8571 127.5 76.8571C126.514 76.8571 125.714 77.6567 125.714 78.6429V78.8225C125.137 78.7049 124.54 78.6429 123.929 78.6429H78.6627L71.8288 68.7027C71.8172 68.6859 71.804 68.671 71.7922 68.6547C71.771 68.6259 71.75 68.5969 71.727 68.5696C71.7062 68.5449 71.6842 68.5219 71.6623 68.4984C71.6449 68.4799 71.6283 68.4607 71.6103 68.4431C71.5846 68.4179 71.5578 68.3944 71.5308 68.371C71.5143 68.3567 71.4984 68.3417 71.4815 68.3279C71.4538 68.3056 71.4252 68.2848 71.3964 68.2643C71.3779 68.2509 71.3596 68.2373 71.3406 68.2246C71.3136 68.2067 71.2857 68.1904 71.2578 68.1741C71.235 68.1607 71.2123 68.1471 71.1888 68.1346C71.1641 68.1217 71.1386 68.11 71.1132 68.0982C71.0853 68.085 71.0574 68.0719 71.0288 68.0603C71.0063 68.0511 70.9833 68.0435 70.9605 68.0353C70.9283 68.0237 70.8964 68.0121 70.8634 68.0025C70.8413 67.996 70.8192 67.9911 70.7969 67.9853C70.7632 67.9768 70.7297 67.9681 70.6953 67.9614C70.6694 67.9565 70.6431 67.9533 70.617 67.9493C70.5864 67.9449 70.5558 67.9397 70.5248 67.9368C70.4882 67.9333 70.4516 67.9326 70.415 67.9313C70.3955 67.9308 70.3768 67.9286 70.3571 67.9286H70.3413C70.3411 67.9286 70.3408 67.9286 70.3406 67.9286H66.5625C66.5391 67.9286 66.5165 67.9312 66.4933 67.9321C66.4605 67.9335 66.4279 67.9339 66.3949 67.9371C66.3576 67.9406 66.3212 67.9467 66.2846 67.9522C66.2652 67.9554 66.246 67.9567 66.2266 67.9603C66.2237 67.9609 66.2208 67.9618 66.2179 67.9625C66.1754 67.9708 66.1344 67.9817 66.0931 67.9931C66.0766 67.9975 66.0596 68.0009 66.0433 68.0058C66.0056 68.0172 65.969 68.0313 65.9324 68.0451C65.9132 68.0522 65.8933 68.0585 65.8743 68.0663C65.8471 68.0777 65.821 68.0913 65.7944 68.104C65.7676 68.1167 65.7402 68.1286 65.7141 68.1426C65.6998 68.1504 65.6864 68.1596 65.6723 68.1676C65.6357 68.1886 65.5991 68.2098 65.5645 68.2333C65.5623 68.2346 65.5605 68.2364 65.5583 68.2379C65.4652 68.3013 65.3786 68.3728 65.3 68.4516C65.2984 68.4531 65.2973 68.4547 65.2958 68.4562C65.2574 68.4951 65.2205 68.5353 65.1859 68.5772C65.1645 68.6031 65.1453 68.6308 65.1252 68.658C65.1116 68.6763 65.0971 68.694 65.0842 68.7129C65.0562 68.7542 65.0306 68.7971 65.006 68.8406C65.0027 68.8467 64.9984 68.8525 64.9951 68.8585C64.973 68.8989 64.9536 68.9406 64.9346 68.9828C64.9299 68.9933 64.9243 69.0031 64.9196 69.0136C64.9056 69.0462 64.8944 69.0801 64.8824 69.1136C64.8748 69.135 64.8658 69.156 64.8589 69.1777C64.8513 69.2016 64.8462 69.2261 64.8395 69.2504C64.8306 69.2833 64.821 69.3161 64.8141 69.3496C64.8105 69.3661 64.8087 69.3833 64.8058 69.4C64.7982 69.442 64.7908 69.4842 64.7864 69.527C64.785 69.5406 64.7848 69.5547 64.7837 69.5685C64.7799 69.6143 64.7768 69.6603 64.7768 69.7067C64.7768 69.7094 64.7763 69.7118 64.7763 69.7145C64.7763 69.7328 64.7786 69.7504 64.779 69.7688C64.7801 69.8071 64.7812 69.8453 64.7848 69.8837C64.7882 69.9192 64.7942 69.9538 64.7996 69.9888C64.8027 70.0094 64.8042 70.0299 64.8083 70.0504L64.8123 70.071C64.8127 70.0728 64.8129 70.0746 64.8134 70.0763L66.454 78.6429H62.1683L59.1199 75.5944C59.108 75.5826 59.0949 75.5723 59.0828 75.5609C59.0525 75.5321 59.0221 75.5033 58.9897 75.4768C58.9665 75.4576 58.942 75.4408 58.9179 75.4232C58.8951 75.4062 58.8728 75.3886 58.8491 75.3728C58.8228 75.3551 58.7953 75.3397 58.7683 75.3237C58.7451 75.3098 58.7225 75.2953 58.6989 75.2826C58.6725 75.2685 58.6453 75.2565 58.6185 75.2437C58.5924 75.2315 58.5667 75.2185 58.5402 75.2074C58.515 75.1969 58.4893 75.1886 58.4638 75.1795C58.4344 75.1687 58.4051 75.1574 58.3748 75.1482C58.3504 75.1408 58.3254 75.1355 58.3009 75.1292C58.2692 75.1212 58.2377 75.1123 58.2054 75.1058C58.1783 75.1004 58.1509 75.0973 58.1237 75.0933C58.0933 75.0888 58.0634 75.0833 58.0326 75.0801C57.9875 75.0757 57.9422 75.0743 57.8971 75.0732C57.8833 75.0732 57.8705 75.0714 57.8571 75.0714C57.8438 75.0714 57.831 75.0732 57.8176 75.0734C57.7723 75.0743 57.7272 75.0759 57.6821 75.0804C57.6513 75.0833 57.6214 75.0891 57.5911 75.0935C57.5638 75.0975 57.5364 75.1007 57.5094 75.106C57.477 75.1125 57.4455 75.1212 57.4138 75.1295C57.3893 75.1357 57.3643 75.1411 57.34 75.1484C57.3096 75.1576 57.2804 75.169 57.2509 75.1797C57.2254 75.1888 57.1998 75.1973 57.1746 75.2076C57.1478 75.2188 57.1221 75.2317 57.0962 75.244C57.0692 75.2567 57.0422 75.2685 57.0158 75.2828C56.9922 75.2955 56.9694 75.31 56.9464 75.3239C56.9194 75.34 56.892 75.3554 56.8656 75.373C56.842 75.3888 56.8196 75.4065 56.7969 75.4234C56.7728 75.4413 56.7484 75.458 56.725 75.477C56.6926 75.5036 56.6623 75.5324 56.6319 75.5612C56.6199 75.5728 56.6067 75.5828 56.5949 75.5946C56.5824 75.6071 56.5717 75.621 56.5594 75.6339C56.5315 75.6636 56.5033 75.6931 56.4775 75.7246C56.4571 75.7493 56.4393 75.7752 56.4205 75.8009C56.4047 75.8223 56.3882 75.8429 56.3734 75.865C56.3545 75.8933 56.3379 75.9225 56.3208 75.9516C56.3083 75.9725 56.2951 75.9931 56.2835 76.0147C56.2681 76.0435 56.2549 76.0732 56.2411 76.1027C56.2301 76.1261 56.2183 76.1493 56.2083 76.1734C56.1967 76.2018 56.1871 76.2306 56.1768 76.2592C56.1674 76.2855 56.1571 76.3114 56.1491 76.3384C56.1404 76.3672 56.1339 76.3964 56.1268 76.4254C56.1199 76.4529 56.1123 76.4799 56.1067 76.5078C56.1 76.5415 56.096 76.5757 56.0911 76.6098C56.0877 76.6335 56.0833 76.6567 56.0808 76.6806C56.075 76.7397 56.0719 76.7991 56.0719 76.8585V78.6429H50.7143V67.9286C50.7143 64.9748 53.1176 62.5714 56.0714 62.5714L116.786 62.5714V73.2857C116.786 74.2719 117.585 75.0714 118.571 75.0714C119.558 75.0714 120.357 74.2719 120.357 73.2857V62.5714H131.071C134.025 62.5714 136.429 64.9748 136.429 67.9286V92.9286Z" fill="#FD8369"/>
<path d="M107.857 69.7144H93.5714C92.5853 69.7144 91.7857 70.5139 91.7857 71.5001C91.7857 72.4862 92.5853 73.2858 93.5714 73.2858H107.857C108.843 73.2858 109.643 72.4862 109.643 71.5001C109.643 70.5139 108.843 69.7144 107.857 69.7144Z" fill="#FD8369"/>
<path d="M127.5 67.9285C126.514 67.9285 125.714 68.728 125.714 69.7142V71.4999C125.714 72.4861 126.514 73.2856 127.5 73.2856C128.486 73.2856 129.286 72.4861 129.286 71.4999V69.7142C129.286 68.728 128.486 67.9285 127.5 67.9285Z" fill="#FD8369"/>
</svg>
