<svg width="180" height="180" viewBox="0 0 180 180" fill="none" xmlns="http://www.w3.org/2000/svg">
<rect width="180" height="180" rx="90" fill="#FD8369" fill-opacity="0.05"/>
<path d="M110.333 66.6667H100.333V48.3333H103.667C104.587 48.3333 105.333 47.5871 105.333 46.6667V41.6667C105.333 40.7463 104.587 40 103.667 40H77C76.0796 40 75.3333 40.7463 75.3333 41.6667V46.6667C75.3333 47.5871 76.0796 48.3333 77 48.3333H80.3333V66.6667H70.3333C65.7329 66.6724 62.0057 70.3996 62 75V126.667C62.0057 131.267 65.7329 134.994 70.3333 135V138.333C70.3333 139.254 71.0796 140 72 140H78.6667C79.5871 140 80.3333 139.254 80.3333 138.333V135H100.333V138.333C100.333 139.254 101.08 140 102 140H108.667C109.587 140 110.333 139.254 110.333 138.333V135C114.934 134.994 118.661 131.267 118.667 126.667V75C118.661 70.3996 114.934 66.6724 110.333 66.6667ZM78.6667 43.3333H102V45H78.6667V43.3333ZM83.6667 48.3333H97V66.6667H83.6667V48.3333ZM77 136.667H73.6667V135H77V136.667ZM107 136.667H103.667V135H107V136.667ZM115.333 126.667C115.333 129.428 113.095 131.667 110.333 131.667H70.3333C67.5721 131.667 65.3333 129.428 65.3333 126.667V75C65.3333 72.2388 67.5721 70 70.3333 70H110.333C113.095 70 115.333 72.2388 115.333 75V126.667Z" fill="#FD8369"/>
<path d="M90.3334 73.3333C89.4129 73.3333 88.6667 74.0795 88.6667 74.9999V126.667C88.6667 127.587 89.4129 128.333 90.3334 128.333C91.2538 128.333 92 127.587 92 126.667V74.9999C92 74.0795 91.2538 73.3333 90.3334 73.3333Z" fill="#FD8369"/>
<path d="M103.667 76.6667C102.746 76.6667 102 77.413 102 78.3334V123.333C102 124.254 102.746 125 103.667 125C104.587 125 105.333 124.254 105.333 123.333V78.3334C105.333 77.413 104.587 76.6667 103.667 76.6667Z" fill="#FD8369"/>
<path d="M77 76.6667C76.0796 76.6667 75.3333 77.413 75.3333 78.3334V123.333C75.3333 124.254 76.0796 125 77 125C77.9204 125 78.6666 124.254 78.6666 123.333V78.3334C78.6666 77.413 77.9204 76.6667 77 76.6667Z" fill="#FD8369"/>
</svg>
