<svg width="180" height="180" viewBox="0 0 180 180" fill="none" xmlns="http://www.w3.org/2000/svg">
<rect width="180" height="180" rx="90" fill="#FD8369" fill-opacity="0.05"/>
<path d="M73.3333 53.3333H53.3333C52.4121 53.3333 51.6667 54.0795 51.6667 54.9999C51.6667 55.9203 52.4121 56.6666 53.3333 56.6666H73.3333C74.2537 56.6666 75 55.9203 75 54.9999C75 54.0795 74.2537 53.3333 73.3333 53.3333Z" fill="#FD8369"/>
<path d="M81.1833 53.8168C81.0238 53.6663 80.8366 53.5475 80.6331 53.4669C80.0122 53.2057 79.2952 53.344 78.8159 53.8168C78.6654 53.9763 78.5465 54.1627 78.466 54.3669C78.1689 55.0644 78.3805 55.8749 78.9803 56.3388C79.5809 56.8027 80.4183 56.8027 81.0189 56.3388C81.6186 55.8749 81.8302 55.0644 81.5332 54.3669C81.4486 54.1651 81.3297 53.9788 81.1833 53.8168Z" fill="#FD8369"/>
<path d="M73.3333 103.333H53.3333C52.4121 103.333 51.6667 104.08 51.6667 105C51.6667 105.92 52.4121 106.667 53.3333 106.667H73.3333C74.2537 106.667 75 105.92 75 105C75 104.08 74.2537 103.333 73.3333 103.333Z" fill="#FD8369"/>
<path d="M81.1833 103.817C80.5143 103.2 79.4849 103.2 78.8159 103.817C78.6695 103.979 78.5506 104.165 78.466 104.367C78.2007 104.987 78.3391 105.706 78.8159 106.183C78.9787 106.33 79.1643 106.448 79.3661 106.533C79.9862 106.799 80.7064 106.661 81.1833 106.183C81.6602 105.706 81.7985 104.987 81.5332 104.367C81.4486 104.165 81.3298 103.979 81.1833 103.817Z" fill="#FD8369"/>
<path d="M131.178 72.1549C130.866 71.8424 130.442 71.6667 130 71.6667H95V41.6667C95 40.7463 94.2537 40 93.3333 40H86.6667C85.7454 40 85 40.7463 85 41.6667V46.6667H50C49.5573 46.6667 49.1341 46.8424 48.8216 47.1549L40.4883 55.4883C39.8372 56.1393 39.8372 57.194 40.4883 57.845L48.8216 66.1784C49.1341 66.4909 49.5573 66.6667 50 66.6667H85V96.6667H50C49.5573 96.6667 49.1341 96.8424 48.8216 97.1549L40.4883 105.488C39.8372 106.139 39.8372 107.194 40.4883 107.845L48.8216 116.178C49.1341 116.491 49.5573 116.667 50 116.667H85V126.667H83.3333C78.7329 126.672 75.0049 130.4 75 135V136.667H68.3333C67.4121 136.667 66.6667 137.413 66.6667 138.333C66.6667 139.254 67.4121 140 68.3333 140H111.667C112.587 140 113.333 139.254 113.333 138.333C113.333 137.413 112.587 136.667 111.667 136.667H105V135C104.994 130.4 101.266 126.672 96.6667 126.667H95V91.6667H130C130.442 91.6667 130.866 91.4909 131.178 91.1784L139.511 82.845C140.162 82.194 140.162 81.1393 139.511 80.4883L131.178 72.1549ZM50.6893 63.3333L44.0226 56.6667L50.6893 50H85V63.3333H50.6893ZM50.6893 113.333L44.0226 106.667L50.6893 100H85V113.333H50.6893ZM101.667 135V136.667H78.3333V135C78.3333 132.239 80.5713 130 83.3333 130H96.6667C99.4279 130 101.667 132.239 101.667 135ZM88.3333 126.667V43.3333H91.6667V126.667H88.3333ZM129.31 88.3333H95V75H129.31L135.977 81.6667L129.31 88.3333Z" fill="#FD8369"/>
<path d="M126.667 78.3333H106.667C105.745 78.3333 105 79.0795 105 79.9999C105 80.9203 105.745 81.6666 106.667 81.6666H126.667C127.587 81.6666 128.333 80.9203 128.333 79.9999C128.333 79.0795 127.587 78.3333 126.667 78.3333Z" fill="#FD8369"/>
<path d="M100.633 78.4667C100.228 78.2852 99.7656 78.2795 99.3555 78.4496C98.9453 78.6197 98.6239 78.9517 98.466 79.3668C98.2007 79.9909 98.3398 80.7136 98.8184 81.1946C99.2969 81.6755 100.019 81.8187 100.645 81.5567C101.27 81.2938 101.674 80.6786 101.667 79.9999C101.66 79.5588 101.488 79.1356 101.183 78.8166C101.026 78.662 100.839 78.5432 100.633 78.4667Z" fill="#FD8369"/>
<path d="M121.667 140C122.587 140 123.333 139.254 123.333 138.333C123.333 137.413 122.587 136.667 121.667 136.667H118.333C117.412 136.667 116.667 137.413 116.667 138.333C116.667 139.254 117.412 140 118.333 140H121.667Z" fill="#FD8369"/>
<path d="M61.6667 140C62.5871 140 63.3333 139.254 63.3333 138.333C63.3333 137.413 62.5871 136.667 61.6667 136.667H55C54.0788 136.667 53.3333 137.413 53.3333 138.333C53.3333 139.254 54.0788 140 55 140H61.6667Z" fill="#FD8369"/>
</svg>
