<svg width="180" height="180" viewBox="0 0 180 180" fill="none" xmlns="http://www.w3.org/2000/svg">
<rect width="180" height="180" rx="90" fill="#FD8369" fill-opacity="0.05"/>
<path d="M133.259 64.5175L129.919 52.8265C129.727 52.1544 129.113 51.6909 128.413 51.6909H126.743C126.044 51.6909 125.43 52.1544 125.238 52.8265L121.898 64.5175C121.66 65.3489 122.141 66.2155 122.973 66.4532C123.805 66.6905 124.671 66.2097 124.909 65.3778L125.539 63.1731H129.619L130.248 65.378C130.445 66.0657 131.072 66.514 131.753 66.514C131.896 66.514 132.041 66.4942 132.184 66.4532C133.015 66.2155 133.497 65.3489 133.259 64.5175ZM126.433 60.0417L127.578 56.0333L128.724 60.0417H126.433Z" fill="#FD8369"/>
<path d="M133.424 43.3402H124.361C124.386 42.6256 124.172 41.9209 123.734 41.323C123.118 40.4822 122.167 40 121.124 40H101.691C98.0648 40 95.1148 42.9502 95.1148 46.5762V64.9479C95.1148 68.0348 97.2525 70.6316 100.125 71.3357V78.309C100.125 78.9422 100.507 79.5133 101.092 79.7555C101.286 79.8355 101.489 79.8746 101.691 79.8746C102.098 79.8746 102.499 79.7154 102.798 79.416L110.69 71.524H112.424C112.398 72.2387 112.612 72.9434 113.051 73.5412C113.667 74.382 114.618 74.8645 115.661 74.8645H133.424C137.05 74.8645 140 71.9143 140 68.2883V49.9164C140 46.2904 137.05 43.3402 133.424 43.3402ZM113.289 68.3926H110.042C109.627 68.3926 109.228 68.5574 108.935 68.8512L103.257 74.5291V69.9584C103.257 69.0937 102.556 68.3926 101.691 68.3926C99.7916 68.3926 98.2463 66.8473 98.2463 64.9479V46.5762C98.2463 44.6768 99.7916 43.1314 101.691 43.1314H121.124C121.141 43.1314 121.177 43.1314 121.208 43.174C121.239 43.2168 121.229 43.2508 121.224 43.2672L115.856 60.2654C115.786 60.2234 115.712 60.1848 115.634 60.1535C114.306 59.6227 113.147 58.9227 112.159 58.0629C113.917 55.6262 114.567 53.0699 114.807 51.482H116.722C117.587 51.482 118.288 50.7811 118.288 49.9162C118.288 49.0516 117.587 48.3504 116.722 48.3504H111.607V48.2461C111.607 47.3814 110.906 46.6803 110.042 46.6803C109.177 46.6803 108.476 47.3813 108.476 48.2461V48.3504H103.361C102.496 48.3504 101.795 49.0514 101.795 49.9162C101.795 50.7811 102.496 51.482 103.361 51.482H111.626C111.416 52.5564 110.972 54.0531 110.038 55.5586C109.787 55.1521 109.557 54.7275 109.353 54.2805C108.994 53.4936 108.065 53.1477 107.279 53.5068C106.492 53.8662 106.146 54.7951 106.505 55.5816C106.905 56.459 107.385 57.2799 107.935 58.0418C107.01 58.8533 105.868 59.5861 104.449 60.1535C103.646 60.4748 103.256 61.3859 103.577 62.1889C103.822 62.8012 104.41 63.1736 105.031 63.1736C105.225 63.1736 105.422 63.1375 105.612 63.0613C107.423 62.3371 108.881 61.4057 110.057 60.3736C111.324 61.4877 112.803 62.3941 114.47 63.0613C114.624 63.1227 114.782 63.157 114.939 63.1684L113.289 68.3926ZM136.869 68.2881C136.869 70.1875 135.323 71.7328 133.424 71.7328H115.661C115.644 71.7328 115.608 71.7328 115.577 71.69C115.546 71.6473 115.556 71.6135 115.562 71.5969L123.496 46.4719H133.424C135.323 46.4719 136.868 48.0172 136.868 49.9166V68.2881H136.869Z" fill="#FD8369"/>
<path d="M104.116 120.455L89.4779 115.951C88.7287 115.721 88.2254 115.039 88.2254 114.255V108.548L89.0779 107.838C90.6096 106.562 91.6266 104.774 91.9416 102.806L92.1365 101.587H93.34C96.0453 101.587 98.2461 99.3862 98.2461 96.6809V93.3407C98.2461 90.9387 96.5105 88.9356 94.2277 88.5166L95.7508 78.9975C96.4424 74.6747 95.2102 70.2852 92.3695 66.9542C89.5291 63.6231 85.3893 61.7122 81.0115 61.7122H68.9256C64.5477 61.7122 60.4078 63.6225 57.5674 66.9538C54.727 70.2848 53.4945 74.6747 54.1861 78.9971L55.7092 88.5163C53.4266 88.9354 51.691 90.9385 51.691 93.3405V96.6807C51.691 99.386 53.8918 101.587 56.5971 101.587H57.8006L57.9955 102.806C58.3105 104.774 59.3275 106.561 60.8592 107.838L61.7117 108.548V114.255C61.7117 115.039 61.2084 115.721 60.4592 115.951L45.8211 120.455C42.3395 121.527 40 124.694 40 128.337V135.094C40 137.799 42.2008 140 44.9061 140H105.031C107.737 140 109.937 137.799 109.937 135.094V128.337C109.937 124.694 107.598 121.527 104.116 120.455ZM95.1148 93.3403V96.6805C95.1148 97.659 94.3187 98.4551 93.3402 98.4551H92.6377L93.7326 91.611C94.523 91.7905 95.1148 92.4969 95.1148 93.3403ZM56.5971 98.4551C55.6186 98.4551 54.8225 97.659 54.8225 96.6805V93.3403C54.8225 92.4969 55.4143 91.7905 56.2043 91.611L57.2994 98.4551H56.5971ZM57.2787 78.5026C56.732 75.0866 57.7059 71.6178 59.9504 68.9854C62.1951 66.3532 65.4664 64.8434 68.9258 64.8434H81.0117C84.4711 64.8434 87.7424 66.353 89.9871 68.9854C92.2316 71.6176 93.2057 75.0866 92.659 78.5026L91.0701 88.4342H89.7449C89.6936 88.4342 89.6504 88.3975 89.642 88.3469L88.4371 81.117C88.176 79.5504 86.8336 78.4133 85.2453 78.4133H64.6928C63.1045 78.4133 61.7621 79.5504 61.501 81.1172L60.2961 88.3469C60.2875 88.3975 60.2443 88.4342 60.1932 88.4342H58.868L57.2787 78.5026ZM61.0877 102.311L59.3686 91.5659H60.1928C61.7811 91.5659 63.1234 90.4288 63.3846 88.862L64.5895 81.6323C64.598 81.5817 64.6412 81.545 64.6924 81.545H85.2447C85.2961 81.545 85.3393 81.5817 85.3477 81.6323L86.5525 88.8622C86.8137 90.4288 88.1561 91.5659 89.7443 91.5659H90.5686L89.3652 99.0874C89 99.4983 85.1967 103.466 74.9688 103.466C74.1041 103.466 73.4029 104.167 73.4029 105.031C73.4029 105.896 74.1039 106.597 74.9688 106.597C81.533 106.597 85.8283 105.092 88.4459 103.639C88.1301 104.326 87.6635 104.94 87.0734 105.432L80.3703 111.018C79.7525 111.533 78.9693 111.816 78.165 111.816H71.7721C70.968 111.816 70.1846 111.533 69.5668 111.018L62.8637 105.432C61.9141 104.64 61.283 103.532 61.0877 102.311ZM61.3801 118.945C63.4516 118.307 64.8434 116.423 64.8434 114.256V111.158L67.5621 113.424C68.7416 114.407 70.2369 114.948 71.7721 114.948H78.165C79.7004 114.948 81.1955 114.407 82.375 113.424L85.0938 111.158V114.255C85.0938 116.423 86.4855 118.307 88.557 118.944L89.3475 119.188C83.7963 127.704 76.4178 129.813 74.9648 130.154C73.4975 129.818 66.1602 127.749 60.5891 119.188L61.3801 118.945ZM51.691 136.869H44.9061C43.9275 136.869 43.1314 136.073 43.1314 135.094V128.337C43.1314 127.451 43.3574 126.612 43.7588 125.877L50.4516 131.454C51.2393 132.11 51.691 133.075 51.691 134.1V136.869ZM95.1148 134.1V136.868H54.8225V134.1C54.8225 132.143 53.96 130.301 52.4563 129.048L46.0574 123.716C46.2768 123.613 46.5045 123.521 46.742 123.448L57.4855 120.143C64.4369 131.464 74.2838 133.227 74.7109 133.298C74.7961 133.312 74.882 133.319 74.9684 133.319C75.0547 133.319 75.1406 133.312 75.2258 133.298C75.6529 133.227 85.5002 131.464 92.4512 120.143L103.195 123.448C103.432 123.522 103.66 123.613 103.879 123.716L97.4809 129.049C95.9773 130.302 95.1148 132.143 95.1148 134.1ZM106.806 135.094C106.806 136.073 106.01 136.869 105.031 136.869H98.2463V134.101C98.2463 133.075 98.698 132.111 99.4857 131.454L106.179 125.877C106.58 126.612 106.806 127.451 106.806 128.337V135.094Z" fill="#FD8369"/>
</svg>
