<svg width="39" height="39" viewBox="0 0 39 39" fill="none" xmlns="http://www.w3.org/2000/svg">
<path d="M34.3492 18.952L35.0738 12.4309C35.1417 11.811 34.5615 11.2308 33.9417 11.2988L27.4206 12.0233C27.0286 12.0672 26.6974 12.3318 26.5665 12.7033C26.437 13.0749 26.5304 13.488 26.8092 13.7668L28.9829 15.9405L17.7775 27.1459L14.6924 26.5288C14.3563 26.4615 14.009 26.567 13.767 26.809L9.41956 31.1565C9.1521 31.4239 9.05374 31.8166 9.16342 32.1783C9.27238 32.5392 9.57316 32.8116 9.94315 32.8859L12.8959 33.4767L13.4866 36.4294C13.527 36.6311 13.626 36.8123 13.7669 36.9531C13.8843 37.0706 14.0301 37.1598 14.1942 37.2092C14.5558 37.3189 14.9486 37.2206 15.216 36.9531L19.5634 32.6057C19.8054 32.3637 19.9109 32.0163 19.8437 31.6802L19.2267 28.595L30.432 17.3897L32.6057 19.5634C32.8845 19.8421 33.2978 19.9355 33.6692 19.8061C34.0407 19.6752 34.3053 19.3441 34.3492 18.952ZM15.1206 34.1503L14.7718 32.4047C14.7314 32.2017 14.6316 32.0211 14.4915 31.881C14.3514 31.7409 14.171 31.6411 13.9679 31.6008L12.2223 31.252L14.8283 28.646L17.2433 29.1293L17.7266 31.5443L15.1206 34.1503ZM29.7662 13.8255L32.8951 13.4774L32.5471 16.6064L29.7662 13.8255Z" fill="black"/>
<path d="M20.2881 21.7371L24.6355 26.0845L23.1864 27.5336L18.8389 23.1862L20.2881 21.7371Z" fill="#FD8369"/>
<path d="M18.1143 23.9107L22.4618 28.2581L21.0126 29.7073L16.6652 25.3598L18.1143 23.9107Z" fill="#FD8369"/>
<path d="M11.8359 25.6988C11.9654 25.3272 11.8719 24.9141 11.5932 24.6353L9.41946 22.4616L20.6248 11.2562L23.7099 11.8733C24.0461 11.9406 24.3934 11.8351 24.6354 11.593L28.9828 7.24564C29.2503 6.97818 29.3486 6.58547 29.2389 6.22382C29.1293 5.86217 28.8285 5.58982 28.4592 5.51618L25.5065 4.92539L24.9157 1.97268C24.8422 1.60333 24.569 1.30191 24.2081 1.19295C23.8464 1.08327 23.4537 1.18163 23.1863 1.44909L18.8388 5.7965C18.5968 6.03851 18.4914 6.38594 18.5586 6.72196L19.1757 9.80708L7.97032 21.0124L5.79662 18.8387C5.51784 18.56 5.10456 18.4666 4.73313 18.596C4.3617 18.7269 4.09705 19.058 4.05312 19.4501L3.32855 25.9712C3.29459 26.2811 3.40282 26.5889 3.62291 26.809C3.843 27.0291 4.15085 27.1373 4.46069 27.1033L10.9818 26.3788C11.3739 26.3349 11.705 26.0702 11.8359 25.6988ZM23.2818 4.25181L23.6306 5.99739C23.7113 6.4036 24.0283 6.7206 24.4344 6.80121L26.1801 7.15009L23.5741 9.75609L21.1591 9.2728L20.6758 6.85781L23.2818 4.25181ZM5.50724 24.9247L5.8553 21.7957L8.63611 24.5765L5.50724 24.9247Z" fill="black"/>
<path d="M15.2161 10.8685L19.5635 15.2159L18.1144 16.665L13.767 12.3176L15.2161 10.8685Z" fill="#FD8369"/>
<path d="M17.39 8.69482L21.7375 13.0422L20.2883 14.4914L15.9409 10.144L17.39 8.69482Z" fill="#FD8369"/>
</svg>
