<svg width="139" height="39" viewBox="0 0 139 39" fill="none" xmlns="http://www.w3.org/2000/svg">
<path d="M48.6316 20V13.64L43.1596 4.088L46.3756 3.68L50.1676 10.496L54.1276 3.68H57.4156L51.7516 13.76V20H48.6316ZM64.4109 20.288C62.5709 20.288 61.1309 19.736 60.0909 18.632C59.0669 17.512 58.5549 16.016 58.5549 14.144C58.5549 12.288 59.0909 10.808 60.1629 9.704C61.2509 8.6 62.7309 8.048 64.6029 8.048C66.5389 8.048 68.0349 8.624 69.0909 9.776C70.1629 10.912 70.6989 12.408 70.6989 14.264C70.6989 16.12 70.1229 17.592 68.9709 18.68C67.8189 19.752 66.2989 20.288 64.4109 20.288ZM67.4829 14.264C67.4829 13.16 67.2349 12.296 66.7389 11.672C66.2589 11.032 65.5709 10.712 64.6749 10.712C63.7629 10.712 63.0509 10.992 62.5389 11.552C62.0269 12.112 61.7709 12.968 61.7709 14.12C61.7709 15.272 61.9869 16.144 62.4189 16.736C62.8669 17.328 63.5469 17.624 64.4589 17.624C65.3549 17.624 66.0829 17.36 66.6429 16.832C67.2029 16.288 67.4829 15.432 67.4829 14.264ZM81.4711 18.848C80.9431 19.344 80.2951 19.736 79.5271 20.024C78.7591 20.328 78.0631 20.48 77.4391 20.48C75.8551 20.48 74.7271 20.016 74.0551 19.088C73.3991 18.144 73.0711 17.008 73.0711 15.68V8.36H76.2151V15.536C76.2151 16.272 76.3911 16.84 76.7431 17.24C77.0951 17.624 77.6071 17.816 78.2791 17.816C78.6951 17.816 79.1351 17.712 79.5991 17.504C80.0631 17.296 80.4871 17.056 80.8711 16.784V8.36H83.9911V20H82.3591L81.4711 18.848ZM94.5318 15.056L90.6198 10.04V20H87.5238V3.68H89.4918L95.0118 11.216L100.028 3.68H101.924V20H98.7798V10.592L95.7318 14.888L94.5318 15.056ZM111.418 20.288C109.402 20.288 107.81 19.736 106.642 18.632C105.49 17.528 104.914 16.048 104.914 14.192C104.914 12.336 105.434 10.848 106.474 9.728C107.53 8.608 108.962 8.048 110.77 8.048C112.594 8.048 113.93 8.656 114.778 9.872C115.642 11.072 116.074 12.496 116.074 14.144V15.104H108.226C108.37 15.872 108.722 16.488 109.282 16.952C109.842 17.4 110.578 17.624 111.49 17.624C112.018 17.624 112.49 17.56 112.906 17.432C113.338 17.288 113.834 17.088 114.394 16.832L115.306 19.088C114.762 19.504 114.098 19.808 113.314 20C112.546 20.192 111.914 20.288 111.418 20.288ZM113.122 13.016C112.962 12.232 112.674 11.656 112.258 11.288C111.842 10.904 111.322 10.712 110.698 10.712C110.058 10.712 109.522 10.912 109.09 11.312C108.658 11.696 108.378 12.264 108.25 13.016H113.122Z" fill="white"/>
<path d="M50.8725 29.062C50.8725 29.6523 50.779 30.1895 50.592 30.6735C50.405 31.1575 50.141 31.5718 49.8 31.9165C49.459 32.2612 49.0501 32.5288 48.5735 32.7195C48.0968 32.9065 47.5688 33 46.9895 33H44.0415V25.1185H46.9895C47.5688 25.1185 48.0968 25.2138 48.5735 25.4045C49.0501 25.5915 49.459 25.8592 49.8 26.2075C50.141 26.5522 50.405 26.9665 50.592 27.4505C50.779 27.9345 50.8725 28.4717 50.8725 29.062ZM49.778 29.062C49.778 28.578 49.712 28.1453 49.58 27.764C49.448 27.3827 49.261 27.06 49.019 26.796C48.777 26.532 48.4836 26.3303 48.139 26.191C47.7943 26.0517 47.4111 25.982 46.9895 25.982H45.114V32.1365H46.9895C47.4111 32.1365 47.7943 32.0668 48.139 31.9275C48.4836 31.7882 48.777 31.5883 49.019 31.328C49.261 31.064 49.448 30.7413 49.58 30.36C49.712 29.9787 49.778 29.546 49.778 29.062ZM53.2587 27.4285V33H52.2797V27.4285H53.2587ZM53.4787 25.6795C53.4787 25.7748 53.4585 25.8647 53.4182 25.949C53.3815 26.0297 53.3302 26.103 53.2642 26.169C53.2019 26.2313 53.1285 26.2808 53.0442 26.3175C52.9599 26.3542 52.87 26.3725 52.7747 26.3725C52.6794 26.3725 52.5895 26.3542 52.5052 26.3175C52.4245 26.2808 52.3512 26.2313 52.2852 26.169C52.2229 26.103 52.1734 26.0297 52.1367 25.949C52.1 25.8647 52.0817 25.7748 52.0817 25.6795C52.0817 25.5842 52.1 25.4943 52.1367 25.41C52.1734 25.322 52.2229 25.2468 52.2852 25.1845C52.3512 25.1185 52.4245 25.0672 52.5052 25.0305C52.5895 24.9938 52.6794 24.9755 52.7747 24.9755C52.87 24.9755 52.9599 24.9938 53.0442 25.0305C53.1285 25.0672 53.2019 25.1185 53.2642 25.1845C53.3302 25.2468 53.3815 25.322 53.4182 25.41C53.4585 25.4943 53.4787 25.5842 53.4787 25.6795ZM58.1742 28.347C58.1302 28.4277 58.0623 28.468 57.9707 28.468C57.9157 28.468 57.8533 28.4478 57.7837 28.4075C57.714 28.3672 57.6278 28.3232 57.5252 28.2755C57.4262 28.2242 57.307 28.1783 57.1677 28.138C57.0283 28.094 56.8633 28.072 56.6727 28.072C56.5077 28.072 56.3592 28.094 56.2272 28.138C56.0952 28.1783 55.9815 28.2352 55.8862 28.3085C55.7945 28.3818 55.723 28.468 55.6717 28.567C55.624 28.6623 55.6002 28.7668 55.6002 28.8805C55.6002 29.0235 55.6405 29.1427 55.7212 29.238C55.8055 29.3333 55.9155 29.4158 56.0512 29.4855C56.1868 29.5552 56.3408 29.6175 56.5132 29.6725C56.6855 29.7238 56.8615 29.7807 57.0412 29.843C57.2245 29.9017 57.4023 29.9677 57.5747 30.041C57.747 30.1143 57.901 30.206 58.0367 30.316C58.1723 30.426 58.2805 30.5617 58.3612 30.723C58.4455 30.8807 58.4877 31.0713 58.4877 31.295C58.4877 31.5517 58.4418 31.79 58.3502 32.01C58.2585 32.2263 58.1228 32.4152 57.9432 32.5765C57.7635 32.7342 57.5435 32.8588 57.2832 32.9505C57.0228 33.0422 56.7222 33.088 56.3812 33.088C55.9925 33.088 55.6405 33.0257 55.3252 32.901C55.0098 32.7727 54.7422 32.6095 54.5222 32.4115L54.7532 32.0375C54.7825 31.9898 54.8173 31.9532 54.8577 31.9275C54.898 31.9018 54.9512 31.889 55.0172 31.889C55.0832 31.889 55.1528 31.9147 55.2262 31.966C55.2995 32.0173 55.3875 32.0742 55.4902 32.1365C55.5965 32.1988 55.723 32.2557 55.8697 32.307C56.02 32.3583 56.207 32.384 56.4307 32.384C56.6213 32.384 56.7882 32.3602 56.9312 32.3125C57.0742 32.2612 57.1933 32.1933 57.2887 32.109C57.384 32.0247 57.4537 31.9275 57.4977 31.8175C57.5453 31.7075 57.5692 31.5902 57.5692 31.4655C57.5692 31.3115 57.527 31.185 57.4427 31.086C57.362 30.9833 57.2538 30.8972 57.1182 30.8275C56.9825 30.7542 56.8267 30.6918 56.6507 30.6405C56.4783 30.5855 56.3005 30.5287 56.1172 30.47C55.9375 30.4113 55.7597 30.3453 55.5837 30.272C55.4113 30.195 55.2573 30.0997 55.1217 29.986C54.986 29.8723 54.876 29.733 54.7917 29.568C54.711 29.3993 54.6707 29.1958 54.6707 28.9575C54.6707 28.7448 54.7147 28.5413 54.8027 28.347C54.8907 28.149 55.019 27.9767 55.1877 27.83C55.3563 27.6797 55.5635 27.5605 55.8092 27.4725C56.0548 27.3845 56.3353 27.3405 56.6507 27.3405C57.0173 27.3405 57.3455 27.3992 57.6352 27.5165C57.9285 27.6302 58.1815 27.7878 58.3942 27.9895L58.1742 28.347ZM63.5542 28.4185C63.5249 28.4588 63.4955 28.49 63.4662 28.512C63.4369 28.534 63.3947 28.545 63.3397 28.545C63.2847 28.545 63.2242 28.523 63.1582 28.479C63.0959 28.4313 63.0152 28.38 62.9162 28.325C62.8172 28.27 62.6962 28.2205 62.5532 28.1765C62.4139 28.1288 62.2415 28.105 62.0362 28.105C61.7649 28.105 61.5247 28.1545 61.3157 28.2535C61.1067 28.3488 60.9307 28.4882 60.7877 28.6715C60.6484 28.8548 60.542 29.0767 60.4687 29.337C60.399 29.5973 60.3642 29.8888 60.3642 30.2115C60.3642 30.5488 60.4027 30.8495 60.4797 31.1135C60.5567 31.3738 60.6649 31.5938 60.8042 31.7735C60.9435 31.9495 61.1122 32.0852 61.3102 32.1805C61.5119 32.2722 61.7374 32.318 61.9867 32.318C62.225 32.318 62.4212 32.2905 62.5752 32.2355C62.7292 32.1768 62.8575 32.1127 62.9602 32.043C63.0629 31.9733 63.1472 31.911 63.2132 31.856C63.2792 31.7973 63.3452 31.768 63.4112 31.768C63.4955 31.768 63.5579 31.7992 63.5982 31.8615L63.8732 32.219C63.6312 32.516 63.3287 32.7342 62.9657 32.8735C62.6027 33.0092 62.2195 33.077 61.8162 33.077C61.4679 33.077 61.1434 33.0128 60.8427 32.8845C60.5457 32.7562 60.2872 32.571 60.0672 32.329C59.8472 32.0833 59.673 31.7827 59.5447 31.427C59.42 31.0713 59.3577 30.6662 59.3577 30.2115C59.3577 29.7972 59.4145 29.414 59.5282 29.062C59.6455 28.71 59.8142 28.4075 60.0342 28.1545C60.2579 27.8978 60.5329 27.698 60.8592 27.555C61.1855 27.412 61.5595 27.3405 61.9812 27.3405C62.3699 27.3405 62.7145 27.4047 63.0152 27.533C63.3159 27.6577 63.5817 27.8355 63.8127 28.0665L63.5542 28.4185ZM67.1434 27.3405C67.5504 27.3405 67.9171 27.4083 68.2434 27.544C68.5734 27.6797 68.8521 27.8722 69.0794 28.1215C69.3104 28.3708 69.4864 28.6733 69.6074 29.029C69.7321 29.381 69.7944 29.7752 69.7944 30.2115C69.7944 30.6515 69.7321 31.0475 69.6074 31.3995C69.4864 31.7515 69.3104 32.0522 69.0794 32.3015C68.8521 32.5508 68.5734 32.7433 68.2434 32.879C67.9171 33.011 67.5504 33.077 67.1434 33.077C66.7364 33.077 66.3679 33.011 66.0379 32.879C65.7116 32.7433 65.4329 32.5508 65.2019 32.3015C64.9709 32.0522 64.7931 31.7515 64.6684 31.3995C64.5438 31.0475 64.4814 30.6515 64.4814 30.2115C64.4814 29.7752 64.5438 29.381 64.6684 29.029C64.7931 28.6733 64.9709 28.3708 65.2019 28.1215C65.4329 27.8722 65.7116 27.6797 66.0379 27.544C66.3679 27.4083 66.7364 27.3405 67.1434 27.3405ZM67.1434 32.3125C67.6934 32.3125 68.1041 32.1292 68.3754 31.7625C68.6468 31.3922 68.7824 30.877 68.7824 30.217C68.7824 29.5533 68.6468 29.0363 68.3754 28.666C68.1041 28.2957 67.6934 28.1105 67.1434 28.1105C66.8648 28.1105 66.6228 28.1582 66.4174 28.2535C66.2121 28.3488 66.0398 28.4863 65.9004 28.666C65.7648 28.8457 65.6621 29.0675 65.5924 29.3315C65.5264 29.5918 65.4934 29.887 65.4934 30.217C65.4934 30.547 65.5264 30.8422 65.5924 31.1025C65.6621 31.3628 65.7648 31.5828 65.9004 31.7625C66.0398 31.9385 66.2121 32.0742 66.4174 32.1695C66.6228 32.2648 66.8648 32.3125 67.1434 32.3125ZM70.1571 27.4285H70.9601C71.0371 27.4285 71.1013 27.4487 71.1526 27.489C71.2039 27.5293 71.2406 27.577 71.2626 27.632L72.6761 31.218C72.7274 31.35 72.7678 31.482 72.7971 31.614C72.8264 31.746 72.8539 31.8762 72.8796 32.0045C72.9089 31.8762 72.9401 31.746 72.9731 31.614C73.0061 31.482 73.0483 31.35 73.0996 31.218L74.5296 27.632C74.5516 27.5733 74.5864 27.5257 74.6341 27.489C74.6854 27.4487 74.7478 27.4285 74.8211 27.4285H75.5856L73.3141 33H72.4286L70.1571 27.4285ZM78.5559 27.3405C78.8895 27.3405 79.1975 27.3973 79.4799 27.511C79.7622 27.621 80.006 27.7823 80.2114 27.995C80.4167 28.204 80.5762 28.4643 80.6899 28.776C80.8072 29.084 80.8659 29.436 80.8659 29.832C80.8659 29.986 80.8494 30.0887 80.8164 30.14C80.7834 30.1913 80.721 30.217 80.6294 30.217H76.9224C76.9297 30.569 76.9774 30.8752 77.0654 31.1355C77.1534 31.3958 77.2744 31.614 77.4284 31.79C77.5824 31.9623 77.7657 32.0925 77.9784 32.1805C78.191 32.2648 78.4294 32.307 78.6934 32.307C78.939 32.307 79.1499 32.2795 79.3259 32.2245C79.5055 32.1658 79.6595 32.1035 79.7879 32.0375C79.9162 31.9715 80.0225 31.911 80.1069 31.856C80.1949 31.7973 80.27 31.768 80.3324 31.768C80.413 31.768 80.4754 31.7992 80.5194 31.8615L80.7944 32.219C80.6734 32.3657 80.5285 32.494 80.3599 32.604C80.1912 32.7103 80.0097 32.7983 79.8154 32.868C79.6247 32.9377 79.4267 32.989 79.2214 33.022C79.016 33.0587 78.8125 33.077 78.6109 33.077C78.2259 33.077 77.8702 33.0128 77.5439 32.8845C77.2212 32.7525 76.9407 32.5618 76.7024 32.3125C76.4677 32.0595 76.2844 31.7478 76.1524 31.3775C76.0204 31.0072 75.9544 30.5818 75.9544 30.1015C75.9544 29.7128 76.013 29.3498 76.1304 29.0125C76.2514 28.6752 76.4237 28.3837 76.6474 28.138C76.871 27.8887 77.1442 27.6943 77.4669 27.555C77.7895 27.412 78.1525 27.3405 78.5559 27.3405ZM78.5779 28.061C78.1049 28.061 77.7327 28.1985 77.4614 28.4735C77.19 28.7448 77.0214 29.1225 76.9554 29.6065H79.9859C79.9859 29.3792 79.9547 29.172 79.8924 28.985C79.83 28.7943 79.7384 28.6312 79.6174 28.4955C79.4964 28.3562 79.3479 28.2498 79.1719 28.1765C78.9995 28.0995 78.8015 28.061 78.5779 28.061ZM82.1189 33V27.4285H82.6799C82.7863 27.4285 82.8596 27.4487 82.8999 27.489C82.9403 27.5293 82.9678 27.599 82.9824 27.698L83.0484 28.567C83.2391 28.1783 83.4738 27.8758 83.7524 27.6595C84.0348 27.4395 84.3648 27.3295 84.7424 27.3295C84.8964 27.3295 85.0358 27.3478 85.1604 27.3845C85.2851 27.4175 85.4006 27.4652 85.5069 27.5275L85.3804 28.259C85.3548 28.3507 85.2979 28.3965 85.2099 28.3965C85.1586 28.3965 85.0798 28.38 84.9734 28.347C84.8671 28.3103 84.7186 28.292 84.5279 28.292C84.1869 28.292 83.9009 28.391 83.6699 28.589C83.4426 28.787 83.2519 29.0748 83.0979 29.4525V33H82.1189ZM94.2044 25.1185V26.015H91.6579V33H90.5909V26.015H88.0334V25.1185H94.2044ZM95.1707 33V24.8985H96.1497V28.1765C96.388 27.9235 96.652 27.7218 96.9417 27.5715C97.2313 27.4175 97.565 27.3405 97.9427 27.3405C98.247 27.3405 98.5147 27.3918 98.7457 27.4945C98.9803 27.5935 99.1747 27.7365 99.3287 27.9235C99.4863 28.1068 99.6055 28.3287 99.6862 28.589C99.7668 28.8493 99.8072 29.1372 99.8072 29.4525V33H98.8282V29.4525C98.8282 29.0308 98.731 28.7045 98.5367 28.4735C98.346 28.2388 98.0527 28.1215 97.6567 28.1215C97.367 28.1215 97.0957 28.1912 96.8427 28.3305C96.5933 28.4698 96.3623 28.6587 96.1497 28.897V33H95.1707ZM103.488 27.3405C103.822 27.3405 104.13 27.3973 104.412 27.511C104.695 27.621 104.939 27.7823 105.144 27.995C105.349 28.204 105.509 28.4643 105.622 28.776C105.74 29.084 105.798 29.436 105.798 29.832C105.798 29.986 105.782 30.0887 105.749 30.14C105.716 30.1913 105.654 30.217 105.562 30.217H101.855C101.862 30.569 101.91 30.8752 101.998 31.1355C102.086 31.3958 102.207 31.614 102.361 31.79C102.515 31.9623 102.698 32.0925 102.911 32.1805C103.124 32.2648 103.362 32.307 103.626 32.307C103.872 32.307 104.082 32.2795 104.258 32.2245C104.438 32.1658 104.592 32.1035 104.72 32.0375C104.849 31.9715 104.955 31.911 105.039 31.856C105.127 31.7973 105.203 31.768 105.265 31.768C105.346 31.768 105.408 31.7992 105.452 31.8615L105.727 32.219C105.606 32.3657 105.461 32.494 105.292 32.604C105.124 32.7103 104.942 32.7983 104.748 32.868C104.557 32.9377 104.359 32.989 104.154 33.022C103.949 33.0587 103.745 33.077 103.543 33.077C103.158 33.077 102.803 33.0128 102.476 32.8845C102.154 32.7525 101.873 32.5618 101.635 32.3125C101.4 32.0595 101.217 31.7478 101.085 31.3775C100.953 31.0072 100.887 30.5818 100.887 30.1015C100.887 29.7128 100.946 29.3498 101.063 29.0125C101.184 28.6752 101.356 28.3837 101.58 28.138C101.804 27.8887 102.077 27.6943 102.399 27.555C102.722 27.412 103.085 27.3405 103.488 27.3405ZM103.51 28.061C103.037 28.061 102.665 28.1985 102.394 28.4735C102.123 28.7448 101.954 29.1225 101.888 29.6065H104.918C104.918 29.3792 104.887 29.172 104.825 28.985C104.763 28.7943 104.671 28.6312 104.55 28.4955C104.429 28.3562 104.28 28.2498 104.104 28.1765C103.932 28.0995 103.734 28.061 103.51 28.061ZM108.452 25.1185H109.338C109.433 25.1185 109.512 25.1423 109.574 25.19C109.637 25.2377 109.679 25.2982 109.701 25.3715L111.329 30.8495C111.358 30.9485 111.384 31.0548 111.406 31.1685C111.432 31.2822 111.455 31.4013 111.477 31.526C111.503 31.4013 111.529 31.2822 111.554 31.1685C111.58 31.0512 111.609 30.9448 111.642 30.8495L113.496 25.3715C113.518 25.3092 113.56 25.2523 113.622 25.201C113.688 25.146 113.767 25.1185 113.859 25.1185H114.167C114.262 25.1185 114.339 25.1423 114.398 25.19C114.46 25.2377 114.504 25.2982 114.53 25.3715L116.372 30.8495C116.438 31.0402 116.497 31.2583 116.548 31.504C116.57 31.383 116.591 31.2675 116.609 31.1575C116.627 31.0475 116.651 30.9448 116.68 30.8495L118.314 25.3715C118.332 25.3055 118.373 25.2468 118.435 25.1955C118.501 25.1442 118.58 25.1185 118.671 25.1185H119.502L117.043 33H116.086L114.09 26.9885C114.05 26.8748 114.013 26.7428 113.98 26.5925C113.962 26.6658 113.943 26.7373 113.925 26.807C113.91 26.873 113.894 26.9335 113.875 26.9885L111.868 33H110.911L108.452 25.1185ZM122.466 27.3405C122.873 27.3405 123.239 27.4083 123.566 27.544C123.896 27.6797 124.174 27.8722 124.402 28.1215C124.633 28.3708 124.809 28.6733 124.93 29.029C125.054 29.381 125.117 29.7752 125.117 30.2115C125.117 30.6515 125.054 31.0475 124.93 31.3995C124.809 31.7515 124.633 32.0522 124.402 32.3015C124.174 32.5508 123.896 32.7433 123.566 32.879C123.239 33.011 122.873 33.077 122.466 33.077C122.059 33.077 121.69 33.011 121.36 32.879C121.034 32.7433 120.755 32.5508 120.524 32.3015C120.293 32.0522 120.115 31.7515 119.991 31.3995C119.866 31.0475 119.804 30.6515 119.804 30.2115C119.804 29.7752 119.866 29.381 119.991 29.029C120.115 28.6733 120.293 28.3708 120.524 28.1215C120.755 27.8722 121.034 27.6797 121.36 27.544C121.69 27.4083 122.059 27.3405 122.466 27.3405ZM122.466 32.3125C123.016 32.3125 123.426 32.1292 123.698 31.7625C123.969 31.3922 124.105 30.877 124.105 30.217C124.105 29.5533 123.969 29.0363 123.698 28.666C123.426 28.2957 123.016 28.1105 122.466 28.1105C122.187 28.1105 121.945 28.1582 121.74 28.2535C121.534 28.3488 121.362 28.4863 121.223 28.666C121.087 28.8457 120.984 29.0675 120.915 29.3315C120.849 29.5918 120.816 29.887 120.816 30.217C120.816 30.547 120.849 30.8422 120.915 31.1025C120.984 31.3628 121.087 31.5828 121.223 31.7625C121.362 31.9385 121.534 32.0742 121.74 32.1695C121.945 32.2648 122.187 32.3125 122.466 32.3125ZM126.323 33V27.4285H126.884C126.99 27.4285 127.064 27.4487 127.104 27.489C127.144 27.5293 127.172 27.599 127.187 27.698L127.253 28.567C127.443 28.1783 127.678 27.8758 127.957 27.6595C128.239 27.4395 128.569 27.3295 128.947 27.3295C129.101 27.3295 129.24 27.3478 129.365 27.3845C129.489 27.4175 129.605 27.4652 129.711 27.5275L129.585 28.259C129.559 28.3507 129.502 28.3965 129.414 28.3965C129.363 28.3965 129.284 28.38 129.178 28.347C129.071 28.3103 128.923 28.292 128.732 28.292C128.391 28.292 128.105 28.391 127.874 28.589C127.647 28.787 127.456 29.0748 127.302 29.4525V33H126.323ZM131.849 24.8985V33H130.87V24.8985H131.849ZM137.495 33C137.356 33 137.268 32.9322 137.231 32.7965L137.143 32.12C136.905 32.4097 136.632 32.6425 136.324 32.8185C136.02 32.9908 135.669 33.077 135.273 33.077C134.954 33.077 134.665 33.0165 134.404 32.8955C134.144 32.7708 133.922 32.5893 133.739 32.351C133.556 32.1127 133.414 31.8157 133.315 31.46C133.216 31.1043 133.167 30.6955 133.167 30.2335C133.167 29.8228 133.222 29.4415 133.332 29.0895C133.442 28.7338 133.6 28.4258 133.805 28.1655C134.014 27.9052 134.267 27.7017 134.564 27.555C134.861 27.4047 135.198 27.3295 135.576 27.3295C135.917 27.3295 136.208 27.3882 136.45 27.5055C136.692 27.6192 136.909 27.7805 137.099 27.9895V24.8985H138.078V33H137.495ZM135.598 32.285C135.917 32.285 136.196 32.2117 136.434 32.065C136.676 31.9183 136.898 31.7112 137.099 31.4435V28.7485C136.92 28.5065 136.722 28.3378 136.505 28.2425C136.293 28.1435 136.056 28.094 135.796 28.094C135.275 28.094 134.876 28.2792 134.597 28.6495C134.318 29.0198 134.179 29.5478 134.179 30.2335C134.179 30.5965 134.21 30.9082 134.272 31.1685C134.335 31.4252 134.426 31.6378 134.547 31.8065C134.668 31.9715 134.817 32.0925 134.993 32.1695C135.169 32.2465 135.371 32.285 135.598 32.285Z" fill="#DDDDDD"/>
<path d="M34.3492 18.9518L35.0738 12.4307C35.1417 11.8109 34.5615 11.2307 33.9417 11.2986L27.4205 12.0231C27.0285 12.067 26.6974 12.3316 26.5665 12.7032C26.4369 13.0747 26.5304 13.4879 26.8092 13.7666L28.9829 15.9403L17.7775 27.1457L14.6924 26.5286C14.3563 26.4614 14.009 26.5669 13.767 26.8089L9.41954 31.1563C9.15208 31.4237 9.05373 31.8165 9.16341 32.1781C9.27236 32.539 9.57315 32.8114 9.94313 32.8857L12.8958 33.4765L13.4866 36.4292C13.5269 36.6309 13.626 36.8121 13.7669 36.9529C13.8843 37.0704 14.0301 37.1596 14.1942 37.2091C14.5558 37.3187 14.9485 37.2204 15.216 36.9529L19.5634 32.6055C19.8054 32.3635 19.9108 32.0161 19.8436 31.6801L19.2267 28.5948L30.432 17.3895L32.6057 19.5632C32.8845 19.842 33.2978 19.9353 33.6692 19.8059C34.0406 19.675 34.3053 19.3439 34.3492 18.9518ZM15.1205 34.1501L14.7717 32.4045C14.7314 32.2015 14.6316 32.021 14.4915 31.8809C14.3514 31.7407 14.171 31.6409 13.9678 31.6006L12.2223 31.2518L14.8283 28.6458L17.2432 29.1291L17.7265 31.5441L15.1205 34.1501ZM29.7661 13.8253L32.8951 13.4773L32.547 16.6062L29.7661 13.8253Z" fill="white"/>
<path d="M20.2881 21.7373L24.6355 26.0847L23.1864 27.5339L18.8389 23.1864L20.2881 21.7373Z" fill="#FD8369"/>
<path d="M18.1143 23.9106L22.4618 28.2581L21.0126 29.7072L16.6652 25.3598L18.1143 23.9106Z" fill="#FD8369"/>
<path d="M11.8359 25.6988C11.9654 25.3272 11.8719 24.9141 11.5931 24.6353L9.41944 22.4616L20.6248 11.2562L23.7099 11.8733C24.046 11.9406 24.3934 11.8351 24.6354 11.593L28.9828 7.24564C29.2503 6.97818 29.3486 6.58547 29.2389 6.22382C29.1292 5.86217 28.8285 5.58982 28.4592 5.51618L25.5065 4.92539L24.9157 1.97268C24.8422 1.60333 24.569 1.30191 24.2081 1.19295C23.8464 1.08327 23.4537 1.18163 23.1862 1.44909L18.8388 5.7965C18.5968 6.03851 18.4914 6.38594 18.5586 6.72196L19.1757 9.80708L7.97031 21.0124L5.7966 18.8387C5.51782 18.56 5.10455 18.4666 4.73311 18.596C4.36168 18.7269 4.09703 19.058 4.05311 19.4501L3.32854 25.9712C3.29457 26.2811 3.40281 26.5889 3.62289 26.809C3.84298 27.0291 4.15083 27.1373 4.46068 27.1033L10.9818 26.3788C11.3739 26.3349 11.705 26.0702 11.8359 25.6988ZM23.2818 4.25181L23.6306 5.99739C23.7113 6.4036 24.0283 6.7206 24.4344 6.80121L26.1801 7.15009L23.5741 9.75609L21.1591 9.2728L20.6758 6.85781L23.2818 4.25181ZM5.50722 24.9247L5.85529 21.7957L8.63609 24.5765L5.50722 24.9247Z" fill="white"/>
<path d="M15.2161 10.8687L19.5635 15.2161L18.1144 16.6652L13.7669 12.3178L15.2161 10.8687Z" fill="#FD8369"/>
<path d="M17.39 8.69482L21.7374 13.0422L20.2883 14.4914L15.9409 10.144L17.39 8.69482Z" fill="#FD8369"/>
</svg>
